#!OML:ASF Y:\EmotionMaleHayes\Project 1\Capture day 1\Session 1\Male1.ASF
:FULLY-SPECIFIED
:DEGREES
1158
root 47.7935 16.5866 -5.28816 539.358 5.98259 544.839
lowerback 2.68637 5.12846 2.26685
upperback -1.26348 6.90892 -1.04351
thorax -2.40282 3.40503 -2.63476
lowerneck -15.6063 12.1514 13.8806
upperneck 17.8372 14.5379 -6.32406
head 9.7095 7.04797 -2.34911
rclavicle 9.62615e-014 -4.69132e-014
rhumerus -24.2019 19.0153 -88.1084
rradius 52.0777
rwrist -4.43101
rhand -8.20112 -31.5857
rfingers 7.12502
rthumb 17.7153 -60.7987
lclavicle 9.62615e-014 -4.69132e-014
lhumerus -49.3225 -0.722946 78.0401
lradius 29.8593
lwrist -8.03453
lhand -9.32791 -23.1683
lfingers 7.12502
lthumb 16.6308 6.13918
rfemur 24.3551 0.380378 25.4447
rtibia 15.2096
rfoot -15.5158 0.170389
rtoes 3.34653
lfemur -12.8225 18.506 -20.3073
ltibia 5.37104
lfoot -2.03708 17.765
ltoes 14.1629
1159
root 47.803 16.6191 -5.42981 539.204 5.73464 544.352
lowerback 2.67096 5.19258 1.58762
upperback -1.3229 6.96982 -1.19004
thorax -2.51359 3.4449 -2.41936
lowerneck -15.5345 12.2046 13.6596
upperneck 17.9476 14.6462 -6.18609
head 9.71728 7.09684 -2.25492
rclavicle 3.03147e-014 -4.77083e-015
rhumerus -25.1912 19.2076 -88.6626
rradius 52.2277
rwrist -4.94149
rhand -8.57794 -31.7068
rfingers 7.12502
rthumb 17.3527 -60.9522
lclavicle 3.03147e-014 -4.77083e-015
lhumerus -48.9438 -0.97399 77.9753
lradius 30.8016
lwrist -9.77322
lhand -7.99678 -19.9056
lfingers 7.12502
lthumb 17.9119 9.28954
rfemur 24.5778 0.92236 25.2657
rtibia 15.7491
rfoot -14.2689 -0.0547787
rtoes 6.82556
lfemur -11.6595 17.8023 -20.6362
ltibia 4.56375
lfoot -2.31416 17.8578
ltoes 14.4342
1160
root 47.7854 16.6455 -5.56074 539.201 5.273 543.943
lowerback 2.66309 5.17271 1.37266
upperback -1.43834 6.93652 -1.42452
thorax -2.62627 3.43036 -2.54648
lowerneck -15.4961 12.2988 13.5783
upperneck 18.11 14.7922 -6.12857
head 9.77145 7.16219 -2.19849
rclavicle -3.60794e-014 3.4191e-014
rhumerus -26.1328 19.1643 -89.2631
rradius 52.2669
rwrist -5.14742
rhand -8.78707 -31.7625
rfingers 7.12502
rthumb 17.1514 -61.0255
lclavicle -3.60794e-014 3.4191e-014
lhumerus -48.5673 -1.297 77.8827
lradius 31.0658
lwrist -10.2031
lhand -8.04516 -20.0434
lfingers 7.12502
lthumb 17.8654 9.156
rfemur 24.4408 0.870475 24.6868
rtibia 16.4341
rfoot -12.7981 -0.0572067
rtoes 8.05367
lfemur -11.6354 19.1838 -21.2137
ltibia 5.52433
lfoot -2.86658 15.9051
ltoes 15.083
1161
root 47.7919 16.677 -5.70499 539.085 5.01295 543.843
lowerback 2.586 5.20674 1.13242
upperback -1.48379 6.97406 -1.50025
thorax -2.64707 3.45372 -2.48946
lowerneck -15.4166 12.4158 13.4048
upperneck 18.1526 14.9487 -5.86961
head 9.7516 7.25081 -2.06306
rclavicle -7.95139e-015 2.8625e-014
rhumerus -26.9983 18.878 -89.8706
rradius 52.1552
rwrist -4.88386
rhand -8.43494 -31.6713
rfingers 7.12502
rthumb 17.4903 -60.9045
lclavicle -7.95139e-015 2.8625e-014
lhumerus -48.2644 -1.98866 78.1361
lradius 31.1099
lwrist -9.00873
lhand -8.95055 -20.8254
lfingers 7.12502
lthumb 16.994 8.45123
rfemur 24.5663 1.00571 24.6809
rtibia 17.0287
rfoot -11.5588 -0.341933
rtoes 8.83959
lfemur -9.99169 16.7111 -21.1414
ltibia 3.67657
lfoot -3.22411 17.7551
ltoes 16.3533
1162
root 47.7611 16.702 -5.8476 539.255 4.46742 543.7
lowerback 2.26254 5.11628 1.24889
upperback -1.61735 6.85849 -1.66362
thorax -2.57582 3.396 -2.68976
lowerneck -15.3142 12.5739 13.2481
upperneck 18.2435 15.1601 -5.60344
head 9.75027 7.36617 -1.91907
rclavicle -7.19104e-014 5.48646e-014
rhumerus -27.9282 18.8132 -90.4297
rradius 52.1168
rwrist -4.67717
rhand -7.92989 -31.6898
rfingers 7.12502
rthumb 17.9763 -60.879
lclavicle -7.19104e-014 5.48646e-014
lhumerus -47.9692 -2.40335 78.3291
lradius 31.2031
lwrist -8.36518
lhand -9.37142 -21.1393
lfingers 7.12502
lthumb 16.5889 8.17169
rfemur 24.2761 0.436944 23.9574
rtibia 17.7176
rfoot -10.1497 -0.081629
rtoes 10.208
lfemur -9.57856 16.2237 -21.5937
ltibia 3.50084
lfoot -3.68366 17.422
ltoes 17.8094
1163
root 47.7617 16.7331 -5.9923 539.127 4.2694 543.485
lowerback 2.17967 5.15899 0.842694
upperback -1.67546 6.90474 -1.70335
thorax -2.62948 3.42698 -2.50641
lowerneck -15.2989 12.805 14.2963
upperneck 18.7653 15.5224 -6.81624
head 10.1708 7.46155 -2.40549
rclavicle 5.42185e-014 -4.53229e-014
rhumerus -28.9038 18.8362 -90.9095
rradius 52.1621
rwrist -4.6795
rhand -7.45316 -31.7435
rfingers 7.12502
rthumb 18.4349 -60.8899
lclavicle 5.42185e-014 -4.53229e-014
lhumerus -47.6226 -2.56976 78.3295
lradius 31.2887
lwrist -8.31924
lhand -9.31519 -22.0192
lfingers 7.12502
lthumb 16.643 7.28726
rfemur 24.4171 0.322493 23.4372
rtibia 18.2149
rfoot -8.57725 0.187485
rtoes 12.5532
lfemur -8.95723 18.5072 -21.6667
ltibia 3.99376
lfoot -3.89991 14.8897
ltoes 19.1413
1164
root 47.7427 16.7537 -6.13017 539.203 3.88961 543.434
lowerback 1.98067 5.15159 0.910843
upperback -1.78739 6.90009 -1.821
thorax -2.61138 3.42482 -2.64957
lowerneck -15.1788 12.9242 14.6083
upperneck 18.9571 15.7111 -7.15064
head 10.2983 7.53061 -2.53392
rclavicle -3.7123e-014 -8.74653e-015
rhumerus -29.8246 18.6976 -91.421
rradius 52.1519
rwrist -4.6537
rhand -6.99911 -31.6745
rfingers 7.12502
rthumb 18.8717 -60.779
lclavicle -3.7123e-014 -8.74653e-015
lhumerus -47.2851 -2.8511 78.2846
lradius 31.4308
lwrist -8.12129
lhand -10.5831 -22.3889
lfingers 7.12502
lthumb 15.422 7.01578
rfemur 24.2433 0.104407 23.0505
rtibia 18.8494
rfoot -6.91177 0.588286
rtoes 14.6874
lfemur -7.8474 16.7065 -21.8444
ltibia 2.71848
lfoot -4.56562 16.0444
ltoes 21.1367
1165
root 47.72 16.774 -6.26185 539.226 3.56149 543.68
lowerback 1.91342 5.12566 1.37908
upperback -1.88466 6.88065 -1.89064
thorax -2.61226 3.40591 -2.97374
lowerneck -15.0579 13.1529 15.0166
upperneck 19.0009 16.0082 -7.39632
head 10.3874 7.66965 -2.62607
rclavicle 1.47101e-014 -2.62396e-014
rhumerus -30.5986 18.4218 -91.9934
rradius 51.986
rwrist -4.57384
rhand -6.52589 -31.523
rfingers 7.12502
rthumb 19.3267 -60.5826
lclavicle 1.47101e-014 -2.62396e-014
lhumerus -46.9161 -3.17277 78.2763
lradius 31.6659
lwrist -7.07891
lhand -11.2144 -22.8455
lfingers 7.12502
lthumb 14.814 6.60495
rfemur 24.0154 -0.0856019 23.0574
rtibia 19.621
rfoot -5.38582 0.641336
rtoes 13.2876
lfemur -7.39315 16.7818 -21.6075
ltibia 2.88132
lfoot -5.13238 15.6365
ltoes 22.3584
1166
root 47.7222 16.7943 -6.39236 539.17 3.37838 543.985
lowerback 1.93542 5.11118 1.5357
upperback -1.97791 6.86718 -1.81492
thorax -2.71278 3.39373 -2.98992
lowerneck -14.9266 13.3398 15.2014
upperneck 19.1739 16.2929 -7.58433
head 10.4958 7.7898 -2.66884
rclavicle -1.45113e-014 -7.95139e-015
rhumerus -31.3561 18.2664 -92.5615
rradius 51.7637
rwrist -4.52619
rhand -6.18196 -31.4496
rfingers 7.12502
rthumb 19.6574 -60.4758
lclavicle -1.45113e-014 -7.95139e-015
lhumerus -46.5769 -3.36022 78.3051
lradius 32.1727
lwrist -4.55584
lhand -10.0225 -23.0522
lfingers 7.12502
lthumb 15.962 6.31009
rfemur 23.8814 -0.00669303 23.3729
rtibia 20.3874
rfoot -3.8356 0.419822
rtoes 9.26365
lfemur -6.6448 17.2986 -21.0349
ltibia 2.70863
lfoot -5.36975 14.9721
ltoes 24.2415
1167
root 47.689 16.8109 -6.51594 539.235 2.9283 544.053
lowerback 1.82264 5.04237 1.74024
upperback -2.05927 6.7827 -1.80945
thorax -2.71598 3.34753 -3.087
lowerneck -14.876 13.5587 15.366
upperneck 19.3657 16.617 -7.7547
head 10.6284 7.92606 -2.68957
rclavicle -5.12864e-014 1.98785e-014
rhumerus -32.161 18.3111 -92.9431
rradius 51.6554
rwrist -4.58216
rhand -6.01443 -31.4278
rfingers 7.12502
rthumb 19.8185 -60.4374
lclavicle -5.12864e-014 1.98785e-014
lhumerus -46.4248 -4.03364 78.874
lradius 32.8026
lwrist -3.43498
lhand -10.4618 -23.1297
lfingers 7.12502
lthumb 15.539 6.26593
rfemur 23.4555 -0.441686 22.8735
rtibia 21.3313
rfoot -1.95976 1.04435
rtoes 5.92229
lfemur -6.24841 16.4481 -21.1477
ltibia 2.51564
lfoot -5.62268 15.2247
ltoes 25.0642
1168
root 47.683 16.8281 -6.6485 539.194 2.83085 544.144
lowerback 1.43848 5.14049 1.21132
upperback -1.95158 6.89468 -1.3987
thorax -2.49387 3.4186 -2.33802
lowerneck -14.8188 13.7166 15.4172
upperneck 19.5058 16.9826 -8.31655
head 10.7761 8.02908 -2.82479
rclavicle 2.10712e-014 2.22639e-014
rhumerus -32.8857 18.731 -92.775
rradius 51.63
rwrist -4.838
rhand -5.99937 -31.3893
rfingers 7.12502
rthumb 19.833 -60.3974
lclavicle 2.10712e-014 2.22639e-014
lhumerus -46.0578 -4.24747 79.6103
lradius 33.3779
lwrist -3.33344
lhand -10.6008 -22.9084
lfingers 7.12502
lthumb 15.405 6.49764
rfemur 23.2389 -0.463316 22.6623
rtibia 22.1742
rfoot -0.293808 1.60355
rtoes 6.56805
lfemur -5.55315 16.5305 -20.9314
ltibia 2.40987
lfoot -5.91379 14.8546
ltoes 25.5472
1169
root 47.6695 16.8416 -6.77609 539.136 2.65671 544.314
lowerback 1.42881 5.12202 1.27201
upperback -2.03427 6.8741 -1.28953
thorax -2.58099 3.40629 -2.26403
lowerneck -14.5503 13.884 15.5644
upperneck 19.5501 17.2883 -8.59401
head 10.8257 8.15129 -2.89823
rclavicle 9.39258e-015 9.54166e-015
rhumerus -33.7466 18.9309 -93.1673
rradius 51.4958
rwrist -4.79321
rhand -6.04671 -31.351
rfingers 7.12502
rthumb 19.7874 -60.3638
lclavicle 9.39258e-015 9.54166e-015
lhumerus -45.7648 -4.26316 79.6938
lradius 33.835
lwrist -3.39554
lhand -10.8438 -22.6608
lfingers 7.12502
lthumb 15.171 6.76309
rfemur 22.9129 -0.480177 22.5016
rtibia 23.2695
rfoot 1.25977 1.99522
rtoes 10.8465
lfemur -5.15982 17.3842 -20.5746
ltibia 3.01147
lfoot -6.49765 13.5929
ltoes 26.9345
1170
root 47.6562 16.8569 -6.8964 538.961 2.30298 544.372
lowerback 1.60343 5.0402 1.28391
upperback -2.07658 6.76738 -1.27916
thorax -2.72723 3.35033 -2.27759
lowerneck -14.3384 14.0917 15.8458
upperneck 19.5269 17.5947 -8.80525
head 10.8693 8.29255 -2.96255
rclavicle -2.03257e-014 1.27222e-014
rhumerus -34.517 18.8561 -93.6432
rradius 51.2797
rwrist -4.53149
rhand -5.94113 -31.2265
rfingers 7.12502
rthumb 19.8889 -60.2287
lclavicle -2.03257e-014 1.27222e-014
lhumerus -45.3658 -4.34009 79.6354
lradius 34.3066
lwrist -3.35547
lhand -10.8302 -22.4311
lfingers 7.12502
lthumb 15.1841 6.99177
rfemur 22.6078 -0.525713 22.2741
rtibia 24.5099
rfoot 2.65385 1.81409
rtoes 14.6888
lfemur -4.44606 17.2158 -20.46
ltibia 2.8874
lfoot -6.51749 13.2798
ltoes 26.2957
1171
root 47.6477 16.8714 -7.01347 538.796 1.85647 544.13
lowerback 1.73135 4.97291 0.904154
upperback -2.08158 6.6678 -1.34401
thorax -2.8437 3.30713 -2.14728
lowerneck -14.2193 14.238 16.1
upperneck 19.5262 17.8067 -8.99993
head 10.9225 8.38812 -3.02974
rclavicle 2.33572e-015 -7.95139e-016
rhumerus -35.2139 18.6576 -93.9918
rradius 51.0732
rwrist -4.41432
rhand -5.98451 -31.0757
rfingers 7.12502
rthumb 19.8472 -60.0823
lclavicle 2.33572e-015 -7.95139e-016
lhumerus -44.9365 -4.87797 79.7721
lradius 34.8747
lwrist -2.85124
lhand -13.2414 -22.0538
lfingers 7.12502
lthumb 12.8604 7.53002
rfemur 22.2613 -0.813445 21.5418
rtibia 25.688
rfoot 4.01341 1.48261
rtoes 16.1512
lfemur -3.996 17.6033 -20.5828
ltibia 3.4436
lfoot -7.11817 12.1137
ltoes 28.0148
